<svg width="81" height="30" viewBox="0 0 81 30" fill="none" xmlns="http://www.w3.org/2000/svg">
<path fill-rule="evenodd" clip-rule="evenodd" d="M11.3202 0.163141C11.1825 0.278979 10.8485 0.703075 10.5779 1.10544C10.032 1.91762 9.60033 2.31569 8.39051 3.1227C6.312 4.50916 4.35494 6.39875 3.78005 7.57413C3.5715 8.0005 3.13339 9.3697 2.91345 10.2822C2.63017 11.4577 2.5039 11.7783 1.65037 13.4887C1.26553 14.2598 0.871661 15.1667 0.775188 15.504C0.280467 17.2327 0.172428 17.661 0.0769187 18.2728C0.0197008 18.639 -0.0127195 19.2527 0.00471749 19.6366C0.0312673 20.2201 0.0845422 20.4272 0.329011 20.8985C0.713764 21.6402 1.28848 22.2184 2.09567 22.676C2.99039 23.183 3.16081 23.2489 3.82079 23.3423C4.13518 23.3869 4.48508 23.1925 4.51259 23.2201C4.54019 23.2476 4.36809 23.7695 4.2158 24.0701C3.82596 24.8399 3.64099 25.3515 3.23582 26.7815C2.73584 28.5458 2.58872 29.5936 2.79551 29.918C2.93089 30.1305 3.18088 29.9065 3.24555 29.5147C3.27656 29.3269 3.32747 28.8253 3.35858 28.4C3.42526 27.4895 3.59814 26.6167 3.85146 25.9123C3.95179 25.6335 4.10732 25.1886 4.19713 24.9235C4.50925 24.0026 4.76731 23.4016 4.86308 23.3697C4.9161 23.352 4.99144 24.0583 5.21198 24.5177C5.69014 25.5137 5.99831 25.8454 6.55717 25.9653C7.10044 26.0818 7.55792 25.9726 8.53597 25.4931C10.1657 24.6942 11.8084 23.1804 12.625 21.7253C14.1973 18.9231 15.0316 16.6535 15.8946 12.8315C16.5622 9.87459 16.629 7.65562 16.1084 5.73404C15.5929 3.83218 13.3511 0.863951 11.8495 0.095233C11.5806 -0.0424229 11.5617 -0.0400571 11.3202 0.163141ZM13.2618 3.73203C13.7615 3.95968 13.6546 4.46535 13.0055 4.94482C12.5017 5.31704 11.609 5.61426 11.2946 5.51455C11.0584 5.43954 11.0712 5.12489 11.3312 4.61396C11.5659 4.15306 11.8442 3.8604 12.1724 3.72949C12.4735 3.60945 12.9955 3.61067 13.2618 3.73203ZM8.48523 4.45518C8.5414 4.52283 8.65952 4.82846 8.74758 5.13426C8.83573 5.44007 9.07494 6.01593 9.27919 6.41391C9.5849 7.00992 9.64046 7.19113 9.59358 7.44068C9.52111 7.82701 9.33457 8.01224 9.01798 8.01224C8.50136 8.01224 8.19257 7.26973 8.05448 5.69514C7.9835 4.88673 7.99104 4.70184 8.10171 4.53299C8.25373 4.30097 8.34232 4.283 8.48523 4.45518ZM15.4144 5.52129C15.4144 5.94995 14.5085 6.9811 13.7482 7.4179C13.2415 7.70898 12.0896 8.09987 11.7386 8.09987C11.344 8.09987 10.8844 7.88291 10.8149 7.66386C10.7288 7.39284 11.1203 6.84169 11.6266 6.52116C12.1214 6.20791 12.6483 6.05387 13.6987 5.91534C14.1632 5.85418 14.5721 5.74815 14.7064 5.65422C15.1206 5.36462 15.4144 5.30942 15.4144 5.52129ZM6.0508 7.06294C6.26101 7.45032 6.61869 8.01601 6.84554 8.31989C7.51638 9.21855 7.49842 9.53067 6.76957 9.63993C6.01006 9.75384 5.82762 9.51945 5.39477 7.87371C5.1276 6.85781 5.10964 6.58802 5.29645 6.40121C5.5071 6.19056 5.64116 6.30806 6.0508 7.06294ZM12.9609 9.23783C13.2679 9.43349 12.6702 9.87029 11.6006 10.2322C10.9356 10.4571 10.5951 10.4242 10.5951 10.1347C10.5951 9.77365 11.0909 9.40756 11.758 9.27612C12.4409 9.14153 12.7923 9.13032 12.9609 9.23783ZM15.5397 10.7381C15.6598 10.848 15.4274 11.2292 15.0656 11.5159C14.1044 12.277 12.3909 13.1197 11.2306 13.4018C10.257 13.6383 9.36839 13.3793 9.36839 12.8589C9.36839 12.4659 9.60979 12.0661 10.0158 11.7867C10.6445 11.3542 10.8766 11.2912 13.5743 10.8205C14.1285 10.7238 14.6805 10.6305 14.801 10.6132C15.0662 10.575 15.4284 10.6363 15.5397 10.7381ZM4.99196 11.4142C5.62171 11.8143 6.09268 12.4185 6.70517 13.6119C7.18149 14.5399 7.0795 14.8762 6.3191 14.8856C5.91525 14.8907 5.91148 14.8879 5.53444 14.3211C5.03832 13.5753 4.59652 12.6565 4.41093 11.9847C4.1747 11.1296 4.31981 10.9871 4.99196 11.4142ZM3.68708 14.6987C4.99994 16.2001 5.60059 17.2103 5.60059 17.9169C5.60059 18.4481 5.43227 18.5666 4.69816 18.553C3.96686 18.5395 3.65667 18.306 3.27078 17.4784C2.79148 16.4504 2.68853 15.9955 2.7227 15.0557C2.75293 14.2256 2.83959 14.0129 3.10631 14.1153C3.16484 14.1378 3.42623 14.4003 3.68708 14.6987ZM11.5823 14.5839C12.1935 14.8543 12.2154 15.1098 11.6602 15.4946C11.1296 15.8623 10.2896 16.1581 9.29601 16.3272C7.82368 16.5776 7.65772 16.4102 8.54701 15.5716C9.20786 14.9484 9.57097 14.7314 10.2666 14.5441C10.8986 14.3739 11.1229 14.3807 11.5823 14.5839ZM14.0825 16.6168C14.4029 16.9372 13.8913 17.6607 13.0627 18.0595C12.7898 18.1909 12.2142 18.5332 11.7835 18.8202C9.98841 20.0167 8.317 20.4691 7.62355 19.9462C7.43043 19.8005 7.39739 19.7089 7.40055 19.3275C7.40379 18.9384 7.44401 18.8383 7.70723 18.5644C7.87389 18.391 8.1088 18.1976 8.22929 18.1345C8.64742 17.9153 9.59402 17.6438 10.8142 17.3929C11.4947 17.253 12.3725 17.0035 12.7857 16.8327C13.5811 16.5037 13.914 16.4483 14.0825 16.6168ZM2.47245 19.4592C2.89304 19.6745 3.56844 20.2634 3.95337 20.7503C4.55534 21.5118 4.29878 21.9977 3.3407 21.9107C2.7602 21.858 2.38263 21.6411 2.07569 21.1841C1.82798 20.8153 1.56993 19.9866 1.56993 19.5601C1.56993 19.3385 1.59902 19.3156 1.88099 19.3156C2.05203 19.3156 2.31814 19.3802 2.47245 19.4592ZM11.8136 21.5401C12.1387 21.9318 8.68869 23.3435 7.34228 23.3697C5.7768 23.4002 6.0324 22.2549 7.65974 21.947C10.5821 21.3942 11.6091 21.2936 11.8136 21.5401Z" fill="#065F46"/>
<path d="M20.9333 22.5L26.6933 8.5H28.2933L34.0133 22.5H31.5333L27.0533 11.16H27.8933L23.3733 22.5H20.9333ZM23.7733 19.8V17.8H31.1933V19.8H23.7733ZM35.7163 22.5V12.9H37.9163V22.5H35.7163ZM37.9163 17.16L37.1563 16.78C37.1563 15.5667 37.4229 14.5867 37.9563 13.84C38.5029 13.08 39.3229 12.7 40.4163 12.7C40.8963 12.7 41.3296 12.7867 41.7163 12.96C42.1029 13.1333 42.4629 13.4133 42.7963 13.8L41.3563 15.28C41.1829 15.0933 40.9896 14.96 40.7763 14.88C40.5629 14.8 40.3163 14.76 40.0363 14.76C39.4229 14.76 38.9163 14.9533 38.5163 15.34C38.1163 15.7267 37.9163 16.3333 37.9163 17.16ZM45.3403 22.5V8.9H47.5403V22.5H45.3403ZM43.0403 14.9V12.9H49.8403V14.9H43.0403ZM51.4589 22.5V12.9H53.6589V22.5H51.4589ZM52.5589 11.14C52.1856 11.14 51.8723 11.0133 51.6189 10.76C51.3789 10.5067 51.2589 10.1933 51.2589 9.82C51.2589 9.44667 51.3789 9.13333 51.6189 8.88C51.8723 8.62667 52.1856 8.5 52.5589 8.5C52.9456 8.5 53.2589 8.62667 53.4989 8.88C53.7389 9.13333 53.8589 9.44667 53.8589 9.82C53.8589 10.1933 53.7389 10.5067 53.4989 10.76C53.2589 11.0133 52.9456 11.14 52.5589 11.14ZM60.5464 22.7C59.5998 22.7 58.7398 22.48 57.9664 22.04C57.2064 21.6 56.6064 21 56.1664 20.24C55.7264 19.48 55.5064 18.6333 55.5064 17.7C55.5064 16.7533 55.7264 15.9067 56.1664 15.16C56.6064 14.4 57.2064 13.8 57.9664 13.36C58.7398 12.92 59.5998 12.7 60.5464 12.7C61.2931 12.7 61.9864 12.8467 62.6264 13.14C63.2798 13.42 63.8331 13.8267 64.2864 14.36L62.8464 15.82C62.5664 15.4867 62.2264 15.24 61.8264 15.08C61.4398 14.9067 61.0131 14.82 60.5464 14.82C59.9998 14.82 59.5131 14.9467 59.0864 15.2C58.6731 15.44 58.3464 15.7733 58.1064 16.2C57.8798 16.6267 57.7664 17.1267 57.7664 17.7C57.7664 18.26 57.8798 18.76 58.1064 19.2C58.3464 19.6267 58.6731 19.9667 59.0864 20.22C59.5131 20.46 59.9998 20.58 60.5464 20.58C61.0131 20.58 61.4398 20.5 61.8264 20.34C62.2264 20.1667 62.5664 19.9133 62.8464 19.58L64.2864 21.04C63.8331 21.5733 63.2798 21.9867 62.6264 22.28C61.9864 22.56 61.2931 22.7 60.5464 22.7ZM65.8725 22.5V8.1H68.0725V22.5H65.8725ZM73.621 22.6L69.521 12.9H71.941L74.741 20.02H74.041L77.001 12.9H79.441L74.981 22.6H73.621ZM70.761 26.5L73.741 20.36L74.981 22.6L73.201 26.5H70.761Z" fill="black"/>
</svg>
